<svg xmlns="http://www.w3.org/2000/svg" xmlns:xlink="http://www.w3.org/1999/xlink" width="411" height="325" viewBox="0 0 411 325">
  <defs>
    <clipPath id="clip-Mesa_de_trabajo_1">
      <rect width="411" height="325"/>
    </clipPath>
  </defs>
  <g id="Mesa_de_trabajo_1" data-name="Mesa de trabajo 1" clip-path="url(#clip-Mesa_de_trabajo_1)">
    <g id="Background_Complete" data-name="Background Complete" transform="translate(-157 -44)">
      <g id="Group_74" data-name="Group 74">
        <g id="Group_22" data-name="Group 22">
          <rect id="Rectangle_5" data-name="Rectangle 5" width="93.565" height="296.528" transform="translate(318.524 72.811)" fill="#f5f5f5"/>
          <path id="Path_165" data-name="Path 165" d="M0,0H46.782V295.711H0Z" transform="translate(365.306 72.811)" fill="#fff"/>
          <rect id="Rectangle_7" data-name="Rectangle 7" width="33.04" height="29.111" transform="translate(329.207 43.7)" fill="#f5f5f5"/>
          <rect id="Rectangle_8" data-name="Rectangle 8" width="7.875" height="29.111" transform="translate(354.373 43.7)" fill="#ebebeb"/>
          <path id="Path_5" data-name="Path 5" d="M310.726,72.811v-1.7h104.1v1.7" fill="#e0e0e0"/>
          <rect id="Rectangle_9" data-name="Rectangle 9" width="7.92" height="16.699" transform="translate(336.993 85.508)" fill="#fafafa"/>
          <g id="Group_3" data-name="Group 3">
            <path id="Path_6" data-name="Path 6" d="M365.306,108.762c0,.176-10.473.319-23.39.319s-23.392-.143-23.392-.319,10.471-.319,23.392-.319S365.306,108.586,365.306,108.762Z" fill="#e0e0e0"/>
          </g>
          <g id="Group_5" data-name="Group 5">
            <rect id="Rectangle_10" data-name="Rectangle 10" width="7.92" height="16.699" transform="translate(384.182 85.508)" fill="#e0e0e0"/>
            <g id="Group_4" data-name="Group 4">
              <path id="Path_7" data-name="Path 7" d="M412.495,108.762c0,.176-10.473.319-23.39.319s-23.392-.143-23.392-.319,10.471-.319,23.392-.319S412.495,108.586,412.495,108.762Z" fill="#e0e0e0"/>
            </g>
          </g>
          <g id="Group_7" data-name="Group 7">
            <rect id="Rectangle_11" data-name="Rectangle 11" width="7.92" height="16.7" transform="translate(384.182 118.663)" fill="#e0e0e0"/>
            <g id="Group_6" data-name="Group 6">
              <path id="Path_8" data-name="Path 8" d="M412.495,141.917c0,.176-10.473.319-23.39.319s-23.392-.143-23.392-.319,10.471-.319,23.392-.319S412.495,141.741,412.495,141.917Z" fill="#e0e0e0"/>
            </g>
          </g>
          <g id="Group_9" data-name="Group 9">
            <rect id="Rectangle_12" data-name="Rectangle 12" width="7.92" height="16.7" transform="translate(384.182 152.819)" fill="#e0e0e0"/>
            <g id="Group_8" data-name="Group 8">
              <path id="Path_9" data-name="Path 9" d="M412.495,176.073c0,.176-10.473.319-23.39.319s-23.392-.143-23.392-.319,10.471-.319,23.392-.319S412.495,175.9,412.495,176.073Z" fill="#e0e0e0"/>
            </g>
          </g>
          <g id="Group_11" data-name="Group 11">
            <rect id="Rectangle_13" data-name="Rectangle 13" width="7.92" height="16.7" transform="translate(384.182 186.975)" fill="#e0e0e0"/>
            <g id="Group_10" data-name="Group 10">
              <path id="Path_10" data-name="Path 10" d="M412.495,210.229c0,.176-10.473.319-23.39.319s-23.392-.143-23.392-.319,10.471-.319,23.392-.319S412.495,210.053,412.495,210.229Z" fill="#e0e0e0"/>
            </g>
          </g>
          <g id="Group_13" data-name="Group 13">
            <rect id="Rectangle_14" data-name="Rectangle 14" width="7.92" height="16.7" transform="translate(384.182 220.154)" fill="#e0e0e0"/>
            <g id="Group_12" data-name="Group 12">
              <path id="Path_11" data-name="Path 11" d="M412.495,243.408c0,.176-10.473.319-23.39.319s-23.392-.143-23.392-.319,10.471-.319,23.392-.319S412.495,243.232,412.495,243.408Z" fill="#e0e0e0"/>
            </g>
          </g>
          <g id="Group_15" data-name="Group 15">
            <rect id="Rectangle_15" data-name="Rectangle 15" width="7.92" height="16.7" transform="translate(384.182 253.467)" fill="#e0e0e0"/>
            <rect id="Rectangle_16" data-name="Rectangle 16" width="7.92" height="16.7" transform="translate(384.182 287.216)" fill="#e0e0e0"/>
            <g id="Group_14" data-name="Group 14">
              <path id="Path_12" data-name="Path 12" d="M412.495,276.721c0,.176-10.473.319-23.39.319s-23.392-.143-23.392-.319,10.471-.319,23.392-.319S412.495,276.545,412.495,276.721Z" fill="#e0e0e0"/>
            </g>
          </g>
          <rect id="Rectangle_17" data-name="Rectangle 17" width="7.92" height="16.7" transform="translate(336.993 119.169)" fill="#fafafa"/>
          <g id="Group_16" data-name="Group 16">
            <path id="Path_13" data-name="Path 13" d="M365.306,142.423c0,.176-10.473.319-23.39.319s-23.392-.143-23.392-.319,10.471-.319,23.392-.319S365.306,142.247,365.306,142.423Z" fill="#e0e0e0"/>
          </g>
          <rect id="Rectangle_18" data-name="Rectangle 18" width="7.92" height="16.7" transform="translate(336.993 152.831)" fill="#fafafa"/>
          <g id="Group_17" data-name="Group 17">
            <path id="Path_14" data-name="Path 14" d="M365.306,176.085c0,.176-10.473.319-23.39.319s-23.392-.143-23.392-.319,10.471-.319,23.392-.319S365.306,175.909,365.306,176.085Z" fill="#e0e0e0"/>
          </g>
          <rect id="Rectangle_19" data-name="Rectangle 19" width="7.92" height="16.7" transform="translate(336.993 186.492)" fill="#fafafa"/>
          <g id="Group_18" data-name="Group 18">
            <path id="Path_15" data-name="Path 15" d="M365.306,209.746c0,.177-10.473.319-23.39.319s-23.392-.142-23.392-.319,10.471-.318,23.392-.318S365.306,209.57,365.306,209.746Z" fill="#e0e0e0"/>
          </g>
          <rect id="Rectangle_20" data-name="Rectangle 20" width="7.92" height="16.7" transform="translate(336.993 220.154)" fill="#fafafa"/>
          <g id="Group_19" data-name="Group 19">
            <path id="Path_16" data-name="Path 16" d="M365.306,243.408c0,.176-10.473.319-23.39.319s-23.392-.143-23.392-.319,10.471-.319,23.392-.319S365.306,243.232,365.306,243.408Z" fill="#e0e0e0"/>
          </g>
          <rect id="Rectangle_21" data-name="Rectangle 21" width="7.92" height="16.7" transform="translate(336.993 253.816)" fill="#fafafa"/>
          <g id="Group_20" data-name="Group 20">
            <path id="Path_17" data-name="Path 17" d="M365.306,277.069c0,.177-10.473.319-23.39.319s-23.392-.142-23.392-.319,10.471-.318,23.392-.318S365.306,276.894,365.306,277.069Z" fill="#e0e0e0"/>
          </g>
          <g id="Group_21" data-name="Group 21">
            <rect id="Rectangle_22" data-name="Rectangle 22" width="7.92" height="16.7" transform="translate(336.993 287.477)" fill="#fafafa"/>
          </g>
        </g>
        <g id="Group_29" data-name="Group 29">
          <g id="Group_23" data-name="Group 23">
            <rect id="Rectangle_23" data-name="Rectangle 23" width="68.788" height="130.551" transform="translate(410.171 238.788)" fill="#e3e3e3"/>
            <rect id="Rectangle_24" data-name="Rectangle 24" width="32.253" height="130.551" transform="translate(446.706 238.788)" fill="#fff"/>
          </g>
          <g id="Group_25" data-name="Group 25">
            <rect id="Rectangle_25" data-name="Rectangle 25" width="6.185" height="15.027" transform="translate(424.594 251.072)" fill="#f5f5f5"/>
            <rect id="Rectangle_26" data-name="Rectangle 26" width="6.185" height="15.027" transform="translate(424.594 309.884)" fill="#f5f5f5"/>
            <g id="Group_24" data-name="Group 24">
              <path id="Path_18" data-name="Path 18" d="M446.706,272c0,.129-8.179.234-18.267.234s-18.268-.1-18.268-.234,8.178-.235,18.268-.235S446.706,271.867,446.706,272Z" fill="#f5f5f5"/>
            </g>
          </g>
          <g id="Group_27" data-name="Group 27">
            <rect id="Rectangle_27" data-name="Rectangle 27" width="6.185" height="15.027" transform="translate(424.594 280.701)" fill="#f5f5f5"/>
            <g id="Group_26" data-name="Group 26">
              <path id="Path_19" data-name="Path 19" d="M446.706,301.626c0,.129-8.179.234-18.267.234s-18.268-.1-18.268-.234,8.178-.235,18.268-.235S446.706,301.5,446.706,301.626Z" fill="#f5f5f5"/>
            </g>
          </g>
          <rect id="Rectangle_28" data-name="Rectangle 28" width="6.185" height="15.027" transform="translate(453.555 251.072)" fill="#e0e0e0"/>
          <rect id="Rectangle_29" data-name="Rectangle 29" width="6.185" height="15.027" transform="translate(466.973 251.072)" fill="#e0e0e0"/>
          <rect id="Rectangle_30" data-name="Rectangle 30" width="6.185" height="15.027" transform="translate(453.555 279.586)" fill="#e0e0e0"/>
          <rect id="Rectangle_31" data-name="Rectangle 31" width="6.185" height="15.027" transform="translate(466.973 279.586)" fill="#e0e0e0"/>
          <rect id="Rectangle_32" data-name="Rectangle 32" width="6.185" height="15.027" transform="translate(453.555 308.1)" fill="#e0e0e0"/>
          <rect id="Rectangle_33" data-name="Rectangle 33" width="6.185" height="15.027" transform="translate(466.973 308.1)" fill="#e0e0e0"/>
          <rect id="Rectangle_34" data-name="Rectangle 34" width="79.131" height="3.272" transform="translate(405 235.63)" fill="#e0e0e0"/>
          <g id="Group_28" data-name="Group 28">
            <path id="Path_20" data-name="Path 20" d="M479.44,239.21c0,.129-15.375.234-34.336.234s-34.34-.1-34.34-.234,15.372-.234,34.34-.234S479.44,239.081,479.44,239.21Z" fill="#ebebeb"/>
          </g>
        </g>
        <g id="Group_65" data-name="Group 65">
          <g id="Group_50" data-name="Group 50">
            <g id="Group_49" data-name="Group 49">
              <path id="Path_163" data-name="Path 163" d="M0,0H80.308V210.2H0Z" transform="translate(254.37 159.136)" fill="#fff"/>
              <rect id="Rectangle_36" data-name="Rectangle 36" width="40.154" height="210.203" transform="translate(294.525 159.136)" fill="#efefef"/>
              <rect id="Rectangle_37" data-name="Rectangle 37" width="28.359" height="24.987" transform="translate(263.541 134.15)" fill="#ebebeb"/>
              <rect id="Rectangle_38" data-name="Rectangle 38" width="6.759" height="24.987" transform="translate(285.14 134.15)" fill="#e0e0e0"/>
              <rect id="Rectangle_39" data-name="Rectangle 39" width="89.351" height="1.457" transform="translate(247.678 157.679)" fill="#e0e0e0"/>
              <rect id="Rectangle_40" data-name="Rectangle 40" width="6.798" height="14.333" transform="translate(270.223 170.034)" fill="#e0e0e0"/>
              <g id="Group_30" data-name="Group 30">
                <path id="Path_21" data-name="Path 21" d="M294.524,189.993c0,.151-8.989.273-20.076.273s-20.077-.122-20.077-.273,8.987-.274,20.077-.274S294.524,189.842,294.524,189.993Z" fill="#e0e0e0"/>
              </g>
              <g id="Group_32" data-name="Group 32">
                <rect id="Rectangle_41" data-name="Rectangle 41" width="6.798" height="14.333" transform="translate(310.726 170.034)" fill="#fcfcfc"/>
                <g id="Group_31" data-name="Group 31">
                  <path id="Path_22" data-name="Path 22" d="M335.028,189.993c0,.151-8.99.273-20.076.273s-20.078-.122-20.078-.273,8.988-.274,20.078-.274S335.028,189.842,335.028,189.993Z" fill="#ebebeb"/>
                </g>
              </g>
              <g id="Group_34" data-name="Group 34">
                <rect id="Rectangle_42" data-name="Rectangle 42" width="6.798" height="14.333" transform="translate(310.726 198.492)" fill="#fcfcfc"/>
                <g id="Group_33" data-name="Group 33">
                  <path id="Path_23" data-name="Path 23" d="M335.028,218.45c0,.152-8.99.274-20.076.274s-20.078-.122-20.078-.274,8.988-.273,20.078-.273S335.028,218.3,335.028,218.45Z" fill="#fcfcfc"/>
                </g>
              </g>
              <g id="Group_36" data-name="Group 36">
                <rect id="Rectangle_43" data-name="Rectangle 43" width="6.798" height="14.334" transform="translate(310.726 227.808)" fill="#fcfcfc"/>
                <g id="Group_35" data-name="Group 35">
                  <path id="Path_24" data-name="Path 24" d="M335.028,247.767c0,.151-8.99.274-20.076.274s-20.078-.123-20.078-.274,8.988-.274,20.078-.274S335.028,247.616,335.028,247.767Z" fill="#fcfcfc"/>
                </g>
              </g>
              <g id="Group_38" data-name="Group 38">
                <rect id="Rectangle_44" data-name="Rectangle 44" width="6.798" height="14.333" transform="translate(310.726 257.124)" fill="#fcfcfc"/>
                <g id="Group_37" data-name="Group 37">
                  <path id="Path_25" data-name="Path 25" d="M335.028,277.083c0,.152-8.99.274-20.076.274s-20.078-.122-20.078-.274,8.988-.273,20.078-.273S335.028,276.932,335.028,277.083Z" fill="#fcfcfc"/>
                </g>
              </g>
              <g id="Group_40" data-name="Group 40">
                <rect id="Rectangle_45" data-name="Rectangle 45" width="6.798" height="14.333" transform="translate(310.726 285.602)" fill="#fcfcfc"/>
                <g id="Group_39" data-name="Group 39">
                  <path id="Path_26" data-name="Path 26" d="M335.028,305.561c0,.152-8.99.274-20.076.274s-20.078-.122-20.078-.274,8.988-.273,20.078-.273S335.028,305.41,335.028,305.561Z" fill="#fcfcfc"/>
                </g>
              </g>
              <g id="Group_42" data-name="Group 42">
                <rect id="Rectangle_46" data-name="Rectangle 46" width="6.798" height="14.333" transform="translate(310.726 314.195)" fill="#fcfcfc"/>
                <rect id="Rectangle_47" data-name="Rectangle 47" width="6.798" height="14.334" transform="translate(310.726 343.163)" fill="#fcfcfc"/>
                <g id="Group_41" data-name="Group 41">
                  <path id="Path_27" data-name="Path 27" d="M335.028,334.154c0,.152-8.99.274-20.076.274s-20.078-.122-20.078-.274,8.988-.273,20.078-.273S335.028,334,335.028,334.154Z" fill="#fcfcfc"/>
                </g>
              </g>
              <rect id="Rectangle_48" data-name="Rectangle 48" width="6.798" height="14.333" transform="translate(270.223 198.926)" fill="#e0e0e0"/>
              <g id="Group_43" data-name="Group 43">
                <path id="Path_28" data-name="Path 28" d="M294.524,218.885c0,.151-8.989.274-20.076.274s-20.077-.123-20.077-.274,8.987-.274,20.077-.274S294.524,218.734,294.524,218.885Z" fill="#e0e0e0"/>
              </g>
              <rect id="Rectangle_49" data-name="Rectangle 49" width="6.798" height="14.333" transform="translate(270.223 227.818)" fill="#e0e0e0"/>
              <g id="Group_44" data-name="Group 44">
                <path id="Path_29" data-name="Path 29" d="M294.524,247.777c0,.151-8.989.274-20.076.274s-20.077-.123-20.077-.274,8.987-.274,20.077-.274S294.524,247.626,294.524,247.777Z" fill="#e0e0e0"/>
              </g>
              <rect id="Rectangle_50" data-name="Rectangle 50" width="6.798" height="14.333" transform="translate(270.223 256.71)" fill="#e0e0e0"/>
              <g id="Group_45" data-name="Group 45">
                <path id="Path_30" data-name="Path 30" d="M294.524,276.669c0,.151-8.989.274-20.076.274s-20.077-.123-20.077-.274,8.987-.273,20.077-.273S294.524,276.518,294.524,276.669Z" fill="#e0e0e0"/>
              </g>
              <rect id="Rectangle_51" data-name="Rectangle 51" width="6.798" height="14.333" transform="translate(270.223 285.602)" fill="#e0e0e0"/>
              <g id="Group_46" data-name="Group 46">
                <path id="Path_31" data-name="Path 31" d="M294.524,305.561c0,.152-8.989.274-20.076.274s-20.077-.122-20.077-.274,8.987-.273,20.077-.273S294.524,305.41,294.524,305.561Z" fill="#e0e0e0"/>
              </g>
              <rect id="Rectangle_52" data-name="Rectangle 52" width="6.798" height="14.334" transform="translate(270.223 314.495)" fill="#e0e0e0"/>
              <g id="Group_47" data-name="Group 47">
                <path id="Path_32" data-name="Path 32" d="M294.524,334.454c0,.151-8.989.273-20.076.273s-20.077-.122-20.077-.273,8.987-.274,20.077-.274S294.524,334.3,294.524,334.454Z" fill="#e0e0e0"/>
              </g>
              <g id="Group_48" data-name="Group 48">
                <rect id="Rectangle_53" data-name="Rectangle 53" width="6.798" height="14.334" transform="translate(270.223 343.387)" fill="#e0e0e0"/>
              </g>
            </g>
          </g>
          <g id="Group_57" data-name="Group 57">
            <g id="Group_51" data-name="Group 51">
              <path id="Path_164" data-name="Path 164" d="M0,0H68.788V130.551H0Z" transform="translate(206.391 238.788)" fill="#fff"/>
              <rect id="Rectangle_55" data-name="Rectangle 55" width="32.253" height="130.551" transform="translate(242.926 238.788)" fill="#ebebeb"/>
            </g>
            <g id="Group_53" data-name="Group 53">
              <rect id="Rectangle_56" data-name="Rectangle 56" width="6.185" height="15.027" transform="translate(220.815 251.072)" fill="#f5f5f5"/>
              <rect id="Rectangle_57" data-name="Rectangle 57" width="6.185" height="15.027" transform="translate(220.815 309.884)" fill="#f5f5f5"/>
              <g id="Group_52" data-name="Group 52">
                <path id="Path_33" data-name="Path 33" d="M242.926,272c0,.129-8.179.234-18.266.234s-18.269-.1-18.269-.234,8.178-.235,18.269-.235S242.926,271.867,242.926,272Z" fill="#f5f5f5"/>
              </g>
            </g>
            <g id="Group_55" data-name="Group 55">
              <rect id="Rectangle_58" data-name="Rectangle 58" width="6.185" height="15.027" transform="translate(220.815 280.701)" fill="#f5f5f5"/>
              <g id="Group_54" data-name="Group 54">
                <path id="Path_34" data-name="Path 34" d="M242.926,301.626c0,.129-8.179.234-18.266.234s-18.269-.1-18.269-.234,8.178-.235,18.269-.235S242.926,301.5,242.926,301.626Z" fill="#f5f5f5"/>
              </g>
            </g>
            <rect id="Rectangle_59" data-name="Rectangle 59" width="6.185" height="15.027" transform="translate(249.776 251.072)" fill="#e0e0e0"/>
            <rect id="Rectangle_60" data-name="Rectangle 60" width="6.185" height="15.027" transform="translate(263.194 251.072)" fill="#e0e0e0"/>
            <rect id="Rectangle_61" data-name="Rectangle 61" width="6.185" height="15.027" transform="translate(249.776 279.586)" fill="#e0e0e0"/>
            <rect id="Rectangle_62" data-name="Rectangle 62" width="6.185" height="15.027" transform="translate(263.194 279.586)" fill="#e0e0e0"/>
            <rect id="Rectangle_63" data-name="Rectangle 63" width="6.185" height="15.027" transform="translate(249.776 308.1)" fill="#e0e0e0"/>
            <rect id="Rectangle_64" data-name="Rectangle 64" width="6.185" height="15.027" transform="translate(263.194 308.1)" fill="#e0e0e0"/>
            <rect id="Rectangle_65" data-name="Rectangle 65" width="79.131" height="3.272" transform="translate(201.22 235.63)" fill="#ebebeb"/>
            <g id="Group_56" data-name="Group 56">
              <path id="Path_35" data-name="Path 35" d="M275.66,239.21c0,.129-15.375.234-34.336.234s-34.34-.1-34.34-.234,15.372-.234,34.34-.234S275.66,239.081,275.66,239.21Z" fill="#ebebeb"/>
            </g>
          </g>
          <g id="Group_64" data-name="Group 64">
            <g id="Group_58" data-name="Group 58">
              <rect id="Rectangle_66" data-name="Rectangle 66" width="61.583" height="81.225" transform="translate(161.186 287.749)" fill="#fdfdfd"/>
              <rect id="Rectangle_67" data-name="Rectangle 67" width="28.875" height="81.225" transform="translate(193.893 287.749)" fill="#e0e0e0"/>
            </g>
            <g id="Group_60" data-name="Group 60">
              <rect id="Rectangle_68" data-name="Rectangle 68" width="5.537" height="13.453" transform="translate(174.098 298.746)" fill="#e0e0e0"/>
              <rect id="Rectangle_69" data-name="Rectangle 69" width="5.537" height="13.453" transform="translate(174.098 351.397)" fill="#e0e0e0"/>
              <g id="Group_59" data-name="Group 59">
                <path id="Path_36" data-name="Path 36" d="M193.893,317.478c0,.151-7.322.274-16.353.274s-16.355-.123-16.355-.274,7.321-.273,16.355-.273S193.893,317.327,193.893,317.478Z" fill="#e0e0e0"/>
              </g>
            </g>
            <g id="Group_62" data-name="Group 62">
              <rect id="Rectangle_70" data-name="Rectangle 70" width="5.537" height="13.453" transform="translate(174.098 325.271)" fill="#e0e0e0"/>
              <g id="Group_61" data-name="Group 61">
                <path id="Path_37" data-name="Path 37" d="M193.893,344c0,.152-7.322.274-16.353.274s-16.355-.122-16.355-.274,7.321-.273,16.355-.273S193.893,343.852,193.893,344Z" fill="#e0e0e0"/>
              </g>
            </g>
            <rect id="Rectangle_71" data-name="Rectangle 71" width="5.537" height="13.453" transform="translate(200.025 298.746)" fill="#f5f5f5"/>
            <rect id="Rectangle_72" data-name="Rectangle 72" width="5.537" height="13.453" transform="translate(212.038 298.746)" fill="#f5f5f5"/>
            <rect id="Rectangle_73" data-name="Rectangle 73" width="5.537" height="13.453" transform="translate(200.025 324.273)" fill="#f5f5f5"/>
            <rect id="Rectangle_74" data-name="Rectangle 74" width="5.537" height="13.453" transform="translate(212.038 324.273)" fill="#f5f5f5"/>
            <rect id="Rectangle_75" data-name="Rectangle 75" width="5.537" height="13.453" transform="translate(200.025 349.799)" fill="#f5f5f5"/>
            <rect id="Rectangle_76" data-name="Rectangle 76" width="5.537" height="13.453" transform="translate(212.038 349.799)" fill="#f5f5f5"/>
            <rect id="Rectangle_77" data-name="Rectangle 77" width="70.841" height="2.929" transform="translate(156.556 284.922)" fill="#f7f7f7"/>
            <g id="Group_63" data-name="Group 63">
              <path id="Path_38" data-name="Path 38" d="M223.2,288.126c0,.151-13.764.274-30.739.274s-30.743-.123-30.743-.274,13.762-.273,30.743-.273S223.2,287.975,223.2,288.126Z" fill="#ebebeb"/>
            </g>
          </g>
        </g>
      </g>
    </g>
    <g id="Group_255" data-name="Group 255" transform="translate(245 -29)">
      <g id="Group_1" data-name="Group 1" transform="translate(34.957 174.863)">
        <path id="Path_2" data-name="Path 2" d="M237.17,138.668h-70.4c-5.759,0-10.428,2.984-10.428,6.665v22.038c0,3.681,4.669,6.665,10.428,6.665h1.779v7.034l9.7-7.034h58.93c5.758,0,10.426-2.984,10.426-6.665V145.333C247.6,141.652,242.927,138.668,237.17,138.668Z" transform="translate(-156.337 -137.958)" fill="none" stroke="#fff" stroke-miterlimit="10" stroke-width="1"/>
        <text id="JOB" transform="translate(66.886 25)" fill="#fff" font-size="25" font-family="SourceSansPro-Light, Source Sans Pro" font-weight="300"><tspan x="-42.225" y="0">JOB</tspan></text>
      </g>
      <path id="Path_162" data-name="Path 162" d="M0,0H6.25V23.409H0Z" transform="translate(104.184 138.028)" fill="none" stroke="#fff" stroke-width="1"/>
      <rect id="Rectangle_39-2" data-name="Rectangle 39" width="6" height="17.326" transform="translate(104.17 158.396) rotate(180)" fill="none" stroke="#fff" stroke-linejoin="round" stroke-width="1"/>
      <rect id="Rectangle_40-2" data-name="Rectangle 40" width="6.25" height="23.409" transform="translate(132.485 161.438) rotate(180)" fill="none" stroke="#fff" stroke-linejoin="round" stroke-width="1"/>
      <rect id="Rectangle_41-2" data-name="Rectangle 41" width="6" height="17.326" transform="translate(132.733 141.07)" fill="none" stroke="#fff" stroke-linejoin="round" stroke-width="1"/>
      <rect id="Rectangle_42-2" data-name="Rectangle 42" width="15.75" height="5.705" transform="translate(110.465 146.88)" fill="none" stroke="#fff" stroke-linejoin="round" stroke-width="1"/>
    </g>
    <g id="Group_256" data-name="Group 256" transform="translate(-82 -52)">
      <path id="Path_4" data-name="Path 4" d="M365.927,171.285a3.958,3.958,0,1,1-3.958-3.959A3.958,3.958,0,0,1,365.927,171.285Z" fill="none" stroke="#aaa" stroke-miterlimit="10" stroke-width="1"/>
      <path id="Path_5-2" data-name="Path 5" d="M376.323,147.435A14.354,14.354,0,1,0,355.6,160.286v7.606a3.393,3.393,0,0,0,3.393,3.393h5.948a3.393,3.393,0,0,0,3.393-3.393v-7.606A14.341,14.341,0,0,0,376.323,147.435Z" fill="#fff" stroke="#aaa" stroke-miterlimit="10" stroke-width="1"/>
      <path id="Path_6-2" data-name="Path 6" d="M361.969,153.426l-5.657-5.657h11.314Z" fill="none" stroke="#aaa" stroke-linejoin="round" stroke-width="1"/>
      <line id="Line_6" data-name="Line 6" y2="9.858" transform="translate(361.969 153.426)" fill="#664ca8" stroke="#aaa" stroke-linejoin="round" stroke-width="1"/>
      <line id="Line_7" data-name="Line 7" x2="14.125" transform="translate(354.875 163.626)" fill="#664ca8" stroke="#aaa" stroke-linecap="round" stroke-linejoin="round" stroke-width="1"/>
      <line id="Line_8" data-name="Line 8" x2="14.125" transform="translate(354.875 165.626)" fill="#664ca8" stroke="#aaa" stroke-linecap="round" stroke-linejoin="round" stroke-width="1"/>
      <line id="Line_9" data-name="Line 9" x2="14.125" transform="translate(354.875 167.626)" fill="#664ca8" stroke="#aaa" stroke-linecap="round" stroke-linejoin="round" stroke-width="1"/>
    </g>
  </g>
</svg>
