<?xml version="1.0" encoding="utf-8"?>
<!-- Generator: Adobe Illustrator 25.0.1, SVG Export Plug-In . SVG Version: 6.00 Build 0)  -->
<svg version="1.1" id="Layer_1" xmlns="http://www.w3.org/2000/svg" xmlns:xlink="http://www.w3.org/1999/xlink" x="0px" y="0px"
	 viewBox="0 0 2244.3 2244.3" style="enable-background:new 0 0 2244.3 2244.3;" xml:space="preserve">
<style type="text/css">
	.st0{fill:#132235;}
	.st1{fill:#ECCFA8;}
</style>
<rect class="st0" width="2244.3" height="2244.3"/>
<g>
	<path class="st1" d="M1704.2,860c-14.7-27.8-34.8-50.1-60.3-66.7c-25.5-16.6-54.3-29.4-86.4-38.3c-32.1-8.9-67.1-13.3-105-13.3
		h-198.3v722.4l-84.9-96.5l-7.3-8.9l-45.4-56.9v-574h-16.2v553.7l-158.7-199c-14-17.8-24.6-33.7-31.6-47.8
		c-7-14-11.1-24.6-12.1-31.6c-1.1-7-1.6-16.2-1.6-27.5c0-17.3,5.1-32.1,15.4-44.5c10.3-12.4,24.6-18.6,42.9-18.6
		c21.6,0,37.8,6.8,48.6,20.2c10.8,13.5,16.2,31.9,16.2,55.1c0,33.5-11.6,62.6-34.8,87.5l8.1,10.5c18.4-14.6,32.5-29.6,42.5-45
		c10-15.4,15-32.8,15-52.2c0-23.2-8-43.6-23.9-61.2c-15.9-17.5-39.8-26.3-71.7-26.3c-28.1,0-51.3,8.8-69.7,26.3
		c-18.4,17.6-27.5,40.9-27.5,70.1c0,35.1,15.7,72.4,47,111.8l13,16.2c-12,8.1-22.8,15.6-32.5,22.5L518.1,715v800.3h16.2V841.5
		L830.2,1191c-2.8,2.5-5.7,5.1-8.4,7.7c-13.5,12.7-23.9,25.2-31.2,37.7c-7.3,12.4-13.2,26.1-17.8,40.9c-4.6,14.9-6.9,30.7-6.9,47.4
		c0,43.2,16.5,78.6,49.4,106.1c32.9,27.5,79.6,41.3,140.1,41.3c37.1,0,70.4-5.1,100-15.1l61.2,72.3v-107.9l-221.9-261.8
		c9.1-8.4,19.1-16.8,29.9-25.2l329,395.4h58.3l-0.5-0.5h12.2V758h118.3c68.8,0,120.8,16.8,156,50.5c35.2,33.6,52.8,82.6,52.8,146.7
		c0,64.2-17.6,113.1-52.8,146.7c-35.2,33.6-87.2,50.5-156,50.5h-62.6v16.2h73.1c51,0,96.6-7.3,136.9-22
		c40.2-14.7,73.1-38.5,98.6-71.3c25.5-32.9,38.3-72.9,38.3-120C1726.2,919.6,1718.9,887.9,1704.2,860z M962.7,1460.8
		c-46.4,0-82.5-12.8-108.1-38.5c-25.7-25.6-38.5-60.3-38.5-104.1c0-33.5,8.4-64.9,25.1-94.4c2.2-3.8,4.5-7.7,7.1-11.5l199.7,235.9
		C1022.3,1456.6,993.9,1460.8,962.7,1460.8z"/>
	<path class="st1" d="M1119.3,1536.7l-64.8-76.5c-29.3,9.7-62.7,14.7-99.1,14.7c-60.9,0-108.6-14.1-141.9-41.9
		c-33.4-27.9-50.4-64.3-50.4-108.2c0-16.9,2.4-33.1,7-48.2c4.6-14.9,10.7-28.9,18.1-41.5c7.4-12.6,18-25.5,31.7-38.3
		c2.2-2.1,4.5-4.1,6.5-6L537,848.9v669.2h-21.7V707.7l369.9,436.6c8.6-6.1,18-12.6,28.1-19.4l-11.1-13.9
		c-31.6-39.7-47.6-77.9-47.6-113.5c0-29.8,9.5-54,28.4-72c18.8-18,42.9-27.1,71.5-27.1c32.5,0,57.3,9.2,73.7,27.2
		c16.3,18,24.6,39.2,24.6,63c0,19.9-5.2,37.9-15.4,53.7c-10.1,15.6-24.6,30.9-43.1,45.6l-2.2,1.7l-11.2-14.5l1.6-1.7
		c22.6-24.2,34.1-53,34.1-85.6c0-22.5-5.3-40.4-15.6-53.4c-10.2-12.8-25.9-19.2-46.5-19.2c-17.4,0-31.2,5.9-40.8,17.6
		c-9.8,11.9-14.8,26.3-14.8,42.8c0,11.2,0.5,20.3,1.6,27.1c1,6.7,5,17.1,11.9,30.8c6.9,13.8,17.4,29.7,31.3,47.3l153.9,192.9V725.1
		h21.7v575.8l44.8,56.1l7.3,8.9l80.1,91V739h201c37.9,0,73.5,4.5,105.7,13.4c32.2,8.9,61.5,21.9,87.2,38.6
		c25.8,16.8,46.4,39.6,61.2,67.7v0c14.8,28.1,22.4,60.6,22.4,96.4c0,47.6-13.1,88.5-38.8,121.7c-25.7,33.1-59.3,57.4-99.8,72.2
		c-40.3,14.7-86.7,22.2-137.8,22.2h-75.8v-21.7h65.3c67.8,0,119.6-16.7,154.1-49.7c34.5-33,51.9-81.7,51.9-144.8
		s-17.5-111.8-51.9-144.8c-34.5-33-86.4-49.7-154.1-49.7h-115.6V1532h-9l0.5,0.5h-65.6l-0.8-1l-327.3-393.4
		c-9.1,7.2-17.7,14.4-25.8,21.7l220.8,260.6V1536.7z M1254.9,1527.1h51l-0.5-0.5h15.5V755.2h121c69.2,0,122.3,17.2,157.9,51.2
		c35.6,34,53.6,84,53.6,148.7s-18,114.7-53.6,148.7c-35.6,34-88.7,51.2-157.9,51.2h-59.9v10.8h70.4c50.5,0,96.2-7.4,135.9-21.9
		c39.5-14.4,72.3-38.1,97.4-70.4c25-32.2,37.7-72,37.7-118.4c0-34.9-7.3-66.5-21.7-93.8c-14.4-27.3-34.4-49.4-59.4-65.7
		c-25.2-16.4-54-29.1-85.7-37.9c-31.8-8.8-66.8-13.2-104.2-13.2h-195.6v726.9l-89.7-101.9l-7.4-9l-46-57.6V730.5h-10.8v558.7
		l-163.5-205c-14.1-17.9-24.8-34.1-31.9-48.3c-7.2-14.4-11.3-25-12.4-32.4c-1.1-7.1-1.7-16.5-1.7-27.9c0-17.8,5.4-33.4,16-46.3
		c10.7-13,25.9-19.6,45-19.6c22.3,0,39.4,7.2,50.7,21.3c11.1,13.9,16.8,33,16.8,56.8c0,33.3-11.4,62.7-34,87.6l5,6.5
		c17-13.8,30.4-28.1,39.8-42.6c9.7-14.9,14.5-32,14.5-50.8c0-22.4-7.8-42.4-23.2-59.3c-15.3-16.9-38.8-25.4-69.7-25.4
		c-27.2,0-50,8.6-67.8,25.6c-17.7,16.9-26.7,39.8-26.7,68.1c0,34.3,15.6,71.4,46.4,110.1l14.8,18.5l-2.4,1.6
		c-11.7,7.9-22.7,15.5-32.4,22.4l-2,1.4L520.8,722.4v790.2h10.8V834.1L834,1191.3l-2,1.8c-2.5,2.3-5.5,5-8.4,7.7
		c-13.2,12.4-23.6,24.9-30.7,37.1c-7.2,12.2-13.1,25.8-17.6,40.3c-4.5,14.5-6.8,30.2-6.8,46.6c0,42.2,16.3,77.2,48.4,104
		c32.3,27,78.8,40.7,138.4,40.7c36.6,0,69.9-5,99.1-15l1.8-0.6l57.6,68.1v-99.5L891,1159.3l1.9-1.8c9.2-8.5,19.4-17,30.1-25.4
		l2.1-1.6L1254.9,1527.1z M962.7,1463.5c-47,0-84-13.2-110-39.3c-26.1-26-39.3-61.7-39.3-106c0-33.8,8.6-66,25.5-95.7
		c2.2-3.8,4.6-7.7,7.2-11.6l2-3l204.7,241.8l-3.9,1.2C1023,1459.2,994,1463.5,962.7,1463.5z M848.6,1216.9c-1.8,2.8-3.5,5.6-5,8.3
		c-16.4,28.9-24.8,60.2-24.8,93c0,42.8,12.7,77.2,37.7,102.2c25,25,60.7,37.7,106.2,37.7c29.2,0,56.3-3.7,80.6-11.1L848.6,1216.9z"
		/>
</g>
</svg>
