<?xml version="1.0" encoding="utf-8"?>
<!-- Generator: Adobe Illustrator 25.0.1, SVG Export Plug-In . SVG Version: 6.00 Build 0)  -->
<svg version="1.1" id="Layer_1" xmlns="http://www.w3.org/2000/svg" xmlns:xlink="http://www.w3.org/1999/xlink" x="0px" y="0px"
	 viewBox="0 0 4535.4 2551.2" style="enable-background:new 0 0 4535.4 2551.2;" xml:space="preserve">
<style type="text/css">
	.st0{fill:#132235;}
	.st1{fill:#ECCFA8;}
</style>
<rect x="4" y="-1.6" class="st0" width="4527.4" height="2551.7"/>
<g>
	<g>
		<path class="st1" d="M2174.6,888h46.7l113.7,214.4V888h33.7v256.3h-46.7l-113.7-214.4v214.4h-33.7V888z"/>
		<path class="st1" d="M2586.6,1034.6v109.7H2555v-29.2c-7.2,11.7-16.2,20.3-27,25.8c-10.8,5.5-23.9,8.3-39.5,8.3
			c-19.7,0-35.3-5.5-47-16.6c-11.6-11-17.4-25.8-17.4-44.4c0-21.6,7.2-37.9,21.7-48.9c14.5-11,36.1-16.5,64.8-16.5h44.3v-3.1
			c0-14.5-4.8-25.8-14.3-33.7c-9.6-8-23-11.9-40.3-11.9c-11,0-21.7,1.3-32.1,3.9c-10.4,2.6-20.4,6.6-30,11.8v-29.2
			c11.6-4.5,22.8-7.8,33.7-10c10.9-2.2,21.5-3.3,31.8-3.3c27.8,0,48.6,7.2,62.3,21.6C2579.8,983.5,2586.6,1005.3,2586.6,1034.6z
			 M2523.6,1047.7c-25.5,0-43.2,2.9-53.1,8.8c-9.8,5.8-14.8,15.8-14.8,29.9c0,11.2,3.7,20.1,11.1,26.7c7.4,6.6,17.4,9.9,30.1,9.9
			c17.5,0,31.6-6.2,42.2-18.6c10.6-12.4,15.9-28.9,15.9-49.5v-7H2523.6z"/>
		<path class="st1" d="M2811.6,1028.3v116.1H2780v-115c0-18.2-3.5-31.8-10.6-40.9c-7.1-9-17.7-13.6-31.9-13.6
			c-17.1,0-30.5,5.4-40.3,16.3c-9.8,10.9-14.8,25.7-14.8,44.5v108.7h-31.8V877.2h31.8v104.7c7.6-11.6,16.5-20.2,26.7-25.9
			c10.2-5.7,22.1-8.6,35.5-8.6c22.1,0,38.8,6.8,50.1,20.5C2805.9,981.6,2811.6,1001.7,2811.6,1028.3z"/>
		<path class="st1" d="M3025,1034.6v109.7h-31.6v-29.2c-7.2,11.7-16.2,20.3-27,25.8c-10.8,5.5-23.9,8.3-39.5,8.3
			c-19.7,0-35.3-5.5-47-16.6c-11.6-11-17.4-25.8-17.4-44.4c0-21.6,7.2-37.9,21.7-48.9c14.5-11,36.1-16.5,64.8-16.5h44.3v-3.1
			c0-14.5-4.8-25.8-14.3-33.7c-9.6-8-23-11.9-40.3-11.9c-11,0-21.7,1.3-32.1,3.9c-10.4,2.6-20.4,6.6-30,11.8v-29.2
			c11.6-4.5,22.8-7.8,33.7-10c10.9-2.2,21.5-3.3,31.8-3.3c27.8,0,48.6,7.2,62.3,21.6C3018.1,983.5,3025,1005.3,3025,1034.6z
			 M2962,1047.7c-25.5,0-43.2,2.9-53.1,8.8c-9.8,5.8-14.8,15.8-14.8,29.9c0,11.2,3.7,20.1,11.1,26.7c7.4,6.6,17.4,9.9,30.1,9.9
			c17.5,0,31.6-6.2,42.2-18.6c10.6-12.4,15.9-28.9,15.9-49.5v-7H2962z"/>
		<path class="st1" d="M3212.6,957.7v29.9c-8.9-4.6-18.2-8-27.8-10.3c-9.6-2.3-19.6-3.4-29.9-3.4c-15.7,0-27.4,2.4-35.3,7.2
			c-7.8,4.8-11.8,12-11.8,21.6c0,7.3,2.8,13.1,8.4,17.3c5.6,4.2,16.9,8.2,33.8,11.9l10.8,2.4c22.4,4.8,38.4,11.6,47.8,20.3
			c9.4,8.8,14.2,21,14.2,36.7c0,17.9-7.1,32-21.2,42.4c-14.1,10.4-33.6,15.6-58.3,15.6c-10.3,0-21-1-32.2-3c-11.2-2-22.9-5-35.3-9
			v-32.6c11.7,6.1,23.2,10.6,34.5,13.6c11.3,3,22.5,4.6,33.7,4.6c14.9,0,26.3-2.5,34.3-7.6c8-5.1,12-12.3,12-21.5
			c0-8.6-2.9-15.2-8.7-19.7c-5.8-4.6-18.5-9-38-13.2l-11-2.6c-19.6-4.1-33.7-10.4-42.4-19c-8.7-8.5-13-20.2-13-35.1
			c0-18.1,6.4-32,19.2-41.9c12.8-9.8,31-14.8,54.6-14.8c11.7,0,22.7,0.9,33,2.6C3194.4,951.7,3203.9,954.3,3212.6,957.7z"/>
		<path class="st1" d="M3452.5,888h39.3l97.7,256.3h-36.1l-23.4-65.8h-115.6l-23.4,65.8h-36.6L3452.5,888z M3472.1,922.2l-47,127.6
			h94.3L3472.1,922.2z"/>
		<path class="st1" d="M3785.4,1028.3v116.1h-31.6v-115c0-18.2-3.5-31.8-10.6-40.9c-7.1-9-17.7-13.6-31.9-13.6
			c-17.1,0-30.5,5.4-40.3,16.3c-9.8,10.9-14.8,25.7-14.8,44.5v108.7h-31.8V952.1h31.8v29.9c7.6-11.6,16.5-20.2,26.7-25.9
			c10.2-5.7,22.1-8.6,35.5-8.6c22.1,0,38.8,6.8,50.1,20.5C3779.7,981.6,3785.4,1001.7,3785.4,1028.3z"/>
		<path class="st1" d="M3975,981.2v-104h31.6v267.2H3975v-28.8c-6.6,11.4-15,19.9-25.2,25.5c-10.1,5.5-22.3,8.3-36.5,8.3
			c-23.2,0-42.2-9.3-56.7-27.8c-14.6-18.5-21.9-42.9-21.9-73.1c0-30.2,7.3-54.6,21.9-73.1c14.6-18.5,33.5-27.8,56.7-27.8
			c14.2,0,26.4,2.8,36.5,8.3C3959.9,961.3,3968.3,969.8,3975,981.2z M3867.3,1048.4c0,23.2,4.8,41.5,14.3,54.7
			c9.6,13.2,22.7,19.8,39.4,19.8c16.7,0,29.9-6.6,39.5-19.8c9.6-13.2,14.4-31.4,14.4-54.7c0-23.2-4.8-41.5-14.4-54.7
			c-9.6-13.2-22.8-19.8-39.5-19.8c-16.7,0-29.8,6.6-39.4,19.8C3872.1,1006.9,3867.3,1025.1,3867.3,1048.4z"/>
		<path class="st1" d="M2174.6,1410.4h78.3c28.7,0,50.4,6.5,65.2,19.5c14.7,13,22.1,32,22.1,57.1c0,25.3-7.4,44.4-22.1,57.3
			c-14.7,12.9-36.4,19.4-65.2,19.4h-43.6v103h-34.7V1410.4z M2209.3,1438.9v96.3h43.6c16.1,0,28.6-4.2,37.4-12.5
			c8.8-8.4,13.2-20.3,13.2-35.7c0-15.3-4.4-27.2-13.2-35.5c-8.8-8.4-21.3-12.5-37.4-12.5H2209.3z"/>
		<path class="st1" d="M2577.2,1557v109.7h-31.6v-29.2c-7.2,11.7-16.2,20.3-27,25.8c-10.8,5.6-23.9,8.3-39.5,8.3
			c-19.7,0-35.3-5.5-47-16.6c-11.6-11-17.4-25.8-17.4-44.4c0-21.6,7.2-37.9,21.7-48.9c14.5-11,36.1-16.5,64.8-16.5h44.3v-3.1
			c0-14.5-4.8-25.8-14.3-33.7c-9.6-8-23-11.9-40.3-11.9c-11,0-21.7,1.3-32.1,3.9c-10.4,2.6-20.4,6.6-30,11.8v-29.2
			c11.6-4.5,22.8-7.8,33.7-10c10.9-2.2,21.5-3.3,31.8-3.3c27.8,0,48.6,7.2,62.3,21.6C2570.3,1505.8,2577.2,1527.7,2577.2,1557z
			 M2514.2,1570c-25.5,0-43.2,2.9-53.1,8.8c-9.8,5.8-14.8,15.8-14.8,29.9c0,11.2,3.7,20.1,11.1,26.7c7.4,6.6,17.4,9.9,30.1,9.9
			c17.5,0,31.6-6.2,42.2-18.6c10.6-12.4,15.9-28.9,15.9-49.5v-7H2514.2z"/>
		<path class="st1" d="M2811,1503.9c-3.5-2.1-7.4-3.6-11.6-4.6c-4.2-1-8.8-1.5-13.8-1.5c-17.9,0-31.6,5.8-41.1,17.4
			c-9.6,11.6-14.3,28.3-14.3,50v101.3h-31.8v-192.3h31.8v29.9c6.6-11.7,15.3-20.3,25.9-26c10.6-5.7,23.6-8.5,38.8-8.5
			c2.2,0,4.6,0.1,7.2,0.4c2.6,0.3,5.6,0.7,8.8,1.3L2811,1503.9z"/>
		<path class="st1" d="M2932.7,1419.8v54.6h65.1v24.6h-65.1v104.4c0,15.7,2.1,25.8,6.4,30.2c4.3,4.5,13,6.7,26.2,6.7h32.5v26.4
			h-32.5c-24.4,0-41.2-4.6-50.5-13.7c-9.3-9.1-13.9-25.7-13.9-49.7V1499h-23.2v-24.6h23.2v-54.6H2932.7z"/>
		<path class="st1" d="M3256.5,1550.6v116.1h-31.6v-115c0-18.2-3.5-31.8-10.6-40.9c-7.1-9-17.7-13.6-31.9-13.6
			c-17.1,0-30.5,5.4-40.3,16.3c-9.8,10.9-14.8,25.7-14.8,44.5v108.7h-31.8v-192.3h31.8v29.9c7.6-11.6,16.5-20.2,26.7-25.9
			c10.2-5.7,22.1-8.6,35.5-8.6c22.1,0,38.8,6.8,50.1,20.5C3250.8,1504,3256.5,1524.1,3256.5,1550.6z"/>
		<path class="st1" d="M3541.3,1562.7v15.5H3396c1.4,21.7,7.9,38.3,19.7,49.7c11.7,11.4,28.1,17.1,49,17.1c12.1,0,23.9-1.5,35.3-4.5
			c11.4-3,22.7-7.4,33.9-13.4v29.9c-11.3,4.8-23,8.5-34.9,11c-11.9,2.5-24,3.8-36.2,3.8c-30.7,0-55-8.9-72.9-26.8
			c-17.9-17.9-26.9-42-26.9-72.5c0-31.5,8.5-56.5,25.5-74.9c17-18.5,39.9-27.7,68.8-27.7c25.9,0,46.3,8.3,61.4,25
			C3533.7,1511.4,3541.3,1534.1,3541.3,1562.7z M3509.7,1553.4c-0.2-17.3-5.1-31.1-14.5-41.4c-9.4-10.3-22-15.5-37.5-15.5
			c-17.6,0-31.7,5-42.3,14.9c-10.6,10-16.7,24-18.3,42.1L3509.7,1553.4z"/>
		<path class="st1" d="M3761.9,1503.9c-3.5-2.1-7.4-3.6-11.6-4.6c-4.2-1-8.8-1.5-13.8-1.5c-17.9,0-31.6,5.8-41.1,17.4
			c-9.6,11.6-14.3,28.3-14.3,50v101.3h-31.8v-192.3h31.8v29.9c6.6-11.7,15.3-20.3,25.9-26c10.6-5.7,23.6-8.5,38.8-8.5
			c2.2,0,4.6,0.1,7.2,0.4c2.6,0.3,5.6,0.7,8.8,1.3L3761.9,1503.9z"/>
		<path class="st1" d="M3974.9,1480.1v29.9c-8.9-4.6-18.2-8-27.8-10.3c-9.6-2.3-19.6-3.4-29.9-3.4c-15.7,0-27.4,2.4-35.3,7.2
			c-7.8,4.8-11.8,12-11.8,21.6c0,7.3,2.8,13.1,8.4,17.3c5.6,4.2,16.9,8.2,33.8,11.9l10.8,2.4c22.4,4.8,38.4,11.6,47.8,20.3
			c9.4,8.8,14.2,21,14.2,36.7c0,17.9-7.1,32-21.2,42.4c-14.1,10.4-33.6,15.6-58.3,15.6c-10.3,0-21-1-32.2-3s-22.9-5-35.3-9v-32.6
			c11.7,6.1,23.2,10.6,34.5,13.6c11.3,3,22.5,4.6,33.7,4.6c14.9,0,26.3-2.5,34.3-7.6c8-5.1,12-12.3,12-21.5c0-8.6-2.9-15.2-8.7-19.7
			c-5.8-4.6-18.5-9-38-13.2l-11-2.6c-19.6-4.1-33.7-10.4-42.4-19c-8.7-8.5-13-20.2-13-35.1c0-18.1,6.4-32,19.2-41.9
			c12.8-9.8,31-14.8,54.6-14.8c11.7,0,22.7,0.9,33,2.6C3956.7,1474.1,3966.2,1476.6,3974.9,1480.1z"/>
	</g>
	<g>
		<path class="st1" d="M1717.7,1012.1c-14.7-27.8-34.8-50.1-60.3-66.7c-25.5-16.6-54.3-29.4-86.4-38.3c-32.1-8.9-67.1-13.3-105-13.3
			h-198.3v722.4l-84.9-96.5l-7.3-8.9l-45.4-56.9v-574h-16.2v553.7l-158.7-199c-14-17.8-24.6-33.7-31.6-47.8
			c-7-14-11.1-24.6-12.1-31.6c-1.1-7-1.6-16.2-1.6-27.5c0-17.3,5.1-32.1,15.4-44.5c10.3-12.4,24.6-18.6,42.9-18.6
			c21.6,0,37.8,6.8,48.6,20.2c10.8,13.5,16.2,31.9,16.2,55.1c0,33.5-11.6,62.6-34.8,87.5l8.1,10.5c18.4-14.6,32.5-29.6,42.5-45
			c10-15.4,15-32.8,15-52.2c0-23.2-8-43.6-23.9-61.2c-15.9-17.5-39.8-26.3-71.7-26.3c-28.1,0-51.3,8.8-69.7,26.3
			c-18.4,17.6-27.5,40.9-27.5,70.1c0,35.1,15.7,72.4,47,111.8l13,16.2c-12,8.1-22.8,15.6-32.5,22.5L531.6,867.1v800.3h16.2V993.5
			L843.7,1343c-2.8,2.5-5.7,5.1-8.4,7.7c-13.5,12.7-23.9,25.2-31.2,37.7c-7.3,12.4-13.2,26.1-17.8,40.9c-4.6,14.9-6.9,30.7-6.9,47.4
			c0,43.2,16.5,78.6,49.4,106.1c32.9,27.5,79.6,41.3,140.1,41.3c37.1,0,70.4-5.1,100-15.1l61.2,72.3v-107.9l-221.9-261.8
			c9.1-8.4,19.1-16.8,29.9-25.2l329,395.4h58.3l-0.5-0.5h12.2V910h118.3c68.8,0,120.8,16.8,156,50.5c35.2,33.6,52.8,82.6,52.8,146.7
			c0,64.2-17.6,113.1-52.8,146.7c-35.2,33.6-87.2,50.5-156,50.5h-62.6v16.2h73.1c51,0,96.6-7.3,136.9-22
			c40.2-14.7,73.1-38.5,98.6-71.3c25.5-32.9,38.3-72.9,38.3-120C1739.7,1071.6,1732.4,1039.9,1717.7,1012.1z M976.2,1612.8
			c-46.4,0-82.5-12.8-108.1-38.5c-25.7-25.6-38.5-60.3-38.5-104.1c0-33.5,8.4-64.9,25.1-94.4c2.2-3.8,4.5-7.7,7.1-11.5l199.7,235.9
			C1035.8,1608.6,1007.4,1612.8,976.2,1612.8z"/>
		<path class="st1" d="M1132.8,1688.7l-64.8-76.5c-29.3,9.7-62.7,14.7-99.1,14.7c-60.9,0-108.6-14.1-141.9-41.9
			c-33.4-27.9-50.4-64.3-50.4-108.2c0-16.9,2.4-33.1,7-48.2c4.6-14.9,10.7-28.9,18.1-41.5c7.4-12.6,18-25.5,31.7-38.3
			c2.2-2.1,4.5-4.1,6.5-6l-289.4-341.9v669.2h-21.7V859.7l369.9,436.6c8.6-6.1,18-12.6,28.1-19.4l-11.1-13.9
			c-31.6-39.7-47.6-77.9-47.6-113.5c0-29.8,9.5-54,28.4-72c18.8-18,42.9-27.1,71.5-27.1c32.5,0,57.3,9.2,73.7,27.2
			c16.3,18,24.6,39.2,24.6,63c0,19.9-5.2,37.9-15.4,53.7c-10.1,15.6-24.6,30.9-43.1,45.6l-2.2,1.7l-11.2-14.5l1.6-1.7
			c22.6-24.2,34.1-53,34.1-85.6c0-22.5-5.3-40.4-15.6-53.4c-10.2-12.8-25.9-19.2-46.5-19.2c-17.4,0-31.2,5.9-40.8,17.6
			c-9.8,11.9-14.8,26.3-14.8,42.8c0,11.2,0.5,20.3,1.6,27.1c1,6.7,5,17.1,11.9,30.8c6.9,13.8,17.4,29.7,31.3,47.3l153.9,192.9V877.1
			h21.7v575.8l44.8,56.1l7.3,8.9l80.1,91V891h201c37.9,0,73.5,4.5,105.7,13.4c32.2,8.9,61.5,21.9,87.2,38.6
			c25.8,16.8,46.4,39.6,61.2,67.7v0c14.8,28.1,22.4,60.6,22.4,96.4c0,47.6-13.1,88.5-38.8,121.7c-25.7,33.1-59.3,57.4-99.8,72.2
			c-40.3,14.7-86.7,22.2-137.8,22.2h-75.8v-21.7h65.3c67.8,0,119.6-16.7,154.1-49.7c34.5-33,51.9-81.7,51.9-144.8
			c0-63.1-17.5-111.8-51.9-144.8c-34.5-33-86.4-49.7-154.1-49.7H1340V1684h-9l0.5,0.5h-65.6l-0.8-1l-327.3-393.4
			c-9.1,7.2-17.7,14.4-25.8,21.7l220.8,260.6V1688.7z M1268.4,1679.1h51l-0.5-0.5h15.5V907.3h121c69.2,0,122.3,17.2,157.9,51.2
			c35.6,34,53.6,84,53.6,148.7s-18,114.7-53.6,148.7c-35.6,34-88.7,51.2-157.9,51.2h-59.9v10.8h70.4c50.5,0,96.2-7.4,135.9-21.9
			c39.5-14.4,72.3-38.1,97.4-70.4c25-32.2,37.7-72,37.7-118.4c0-34.9-7.3-66.5-21.7-93.8c-14.4-27.3-34.4-49.4-59.4-65.7
			c-25.2-16.4-54-29.1-85.7-37.9c-31.8-8.8-66.8-13.2-104.2-13.2h-195.6v726.9l-89.7-101.9l-7.4-9l-46-57.6V882.6h-10.8v558.7
			l-163.5-205c-14.1-17.9-24.8-34.1-31.9-48.3c-7.2-14.4-11.3-25-12.4-32.4c-1.1-7.1-1.7-16.5-1.7-27.9c0-17.8,5.4-33.4,16-46.3
			c10.7-13,25.9-19.6,45-19.6c22.3,0,39.4,7.2,50.7,21.3c11.1,13.9,16.8,33,16.8,56.8c0,33.3-11.4,62.7-34,87.6l5,6.5
			c17-13.8,30.4-28.1,39.8-42.6c9.7-14.9,14.5-32,14.5-50.8c0-22.4-7.8-42.4-23.2-59.3c-15.3-16.9-38.8-25.4-69.7-25.4
			c-27.2,0-50,8.6-67.8,25.6c-17.7,16.9-26.7,39.8-26.7,68.1c0,34.3,15.6,71.4,46.4,110.1l14.8,18.5l-2.4,1.6
			c-11.7,7.9-22.7,15.5-32.4,22.4l-2,1.4L534.3,874.5v790.2h10.8V986.1l302.4,357.2l-2,1.8c-2.5,2.3-5.5,5-8.4,7.7
			c-13.2,12.4-23.6,24.9-30.7,37.1c-7.2,12.2-13.1,25.8-17.6,40.3c-4.5,14.5-6.8,30.2-6.8,46.6c0,42.2,16.3,77.2,48.4,104
			c32.3,27,78.8,40.7,138.4,40.7c36.6,0,69.9-5,99.1-15l1.8-0.6l57.6,68.1v-99.5l-222.9-263.1l1.9-1.8c9.2-8.5,19.4-17,30.1-25.4
			l2.1-1.6L1268.4,1679.1z M976.2,1615.5c-47,0-84-13.2-110-39.3c-26.1-26-39.3-61.7-39.3-106c0-33.8,8.6-66,25.5-95.7
			c2.2-3.8,4.6-7.7,7.2-11.6l2-3l204.7,241.8l-3.9,1.2C1036.5,1611.3,1007.5,1615.5,976.2,1615.5z M862.1,1368.9
			c-1.8,2.8-3.5,5.6-5,8.3c-16.4,28.9-24.8,60.2-24.8,93c0,42.8,12.7,77.2,37.7,102.2c25,25,60.7,37.7,106.2,37.7
			c29.2,0,56.3-3.7,80.6-11.1L862.1,1368.9z"/>
	</g>
	<g>
		<line class="st1" x1="1957.2" y1="876.1" x2="1957.2" y2="1672.8"/>
		<rect x="1942.7" y="876.1" class="st1" width="28.9" height="796.6"/>
	</g>
</g>
</svg>
