<?xml version="1.0" standalone="no"?>
<!DOCTYPE svg PUBLIC "-//W3C//DTD SVG 20010904//EN"
 "http://www.w3.org/TR/2001/REC-SVG-20010904/DTD/svg10.dtd">
<svg version="1.0" xmlns="http://www.w3.org/2000/svg"
 width="2500.000000pt" height="1642.000000pt" viewBox="0 0 2500.000000 1642.000000"
 preserveAspectRatio="xMidYMid meet">

<g transform="translate(0.000000,1642.000000) scale(0.100000,-0.100000)"
fill="#000000" stroke="none">
<path d="M7724 13529 c-272 -41 -511 -239 -599 -499 -41 -121 -47 -216 -43
-725 4 -415 7 -478 23 -535 75 -270 266 -465 532 -542 77 -23 87 -23 613 -23
605 0 590 -2 756 80 163 80 302 234 364 402 48 135 52 185 48 728 -4 563 -3
548 -83 710 -93 190 -275 335 -488 392 -53 14 -134 17 -562 19 -275 1 -527 -2
-561 -7z"/>
<path d="M10558 13530 c-150 -23 -308 -102 -416 -209 -91 -89 -145 -177 -193
-311 -23 -65 -23 -69 -27 -613 -3 -518 -2 -553 17 -626 53 -213 203 -398 396
-491 154 -75 142 -73 704 -77 336 -3 527 -1 574 7 284 44 510 238 606 518 l26
77 3 529 c3 574 1 605 -53 737 -83 205 -272 373 -495 440 -73 22 -88 23 -580
25 -278 1 -531 -2 -562 -6z"/>
<path d="M19053 13529 c-270 -40 -511 -241 -598 -498 -42 -123 -47 -204 -42
-717 4 -524 5 -534 67 -670 79 -176 228 -317 412 -391 124 -50 185 -54 731
-51 567 4 549 2 717 85 80 39 109 61 186 137 76 77 98 106 137 186 83 168 81
150 85 718 3 546 -1 607 -51 730 -92 228 -282 396 -520 459 -53 14 -134 17
-562 19 -275 1 -528 -2 -562 -7z"/>
<path d="M21882 13529 c-89 -13 -209 -59 -290 -112 -160 -104 -276 -264 -323
-445 -18 -70 -19 -114 -19 -602 0 -495 1 -531 20 -606 54 -209 202 -391 395
-484 167 -81 58 -75 1455 -75 1404 0 1293 -6 1465 80 188 94 327 263 387 472
23 77 23 87 23 608 0 596 0 597 -75 750 -74 151 -196 274 -345 345 -167 80
-63 74 -1420 76 -691 1 -1237 -2 -1273 -7z"/>
<path d="M680 10654 c-100 -16 -154 -30 -217 -55 -213 -89 -373 -273 -440
-510 -16 -58 -18 -111 -18 -599 0 -607 -2 -590 82 -760 39 -80 61 -109 138
-186 80 -81 103 -98 195 -142 58 -28 130 -56 160 -64 45 -11 409 -13 2010 -13
1861 0 1958 1 2020 18 253 71 448 259 531 512 23 69 23 78 27 594 3 571 0 614
-54 744 -89 211 -277 376 -501 440 l-78 22 -1915 1 c-1053 1 -1926 0 -1940 -2z"/>
<path d="M12010 10654 c-108 -18 -154 -30 -217 -55 -210 -88 -370 -269 -435
-496 -23 -77 -23 -87 -23 -613 0 -607 -2 -590 81 -760 40 -79 61 -109 138
-185 73 -74 108 -100 181 -137 166 -85 147 -83 765 -83 618 0 599 -2 765 83
73 37 108 63 181 137 77 76 98 106 138 185 83 170 81 153 81 760 0 526 0 536
-23 613 -63 220 -213 395 -416 487 -138 63 -143 63 -691 66 -275 1 -511 0
-525 -2z"/>
<path d="M20475 10649 c-262 -39 -486 -212 -589 -456 -54 -130 -57 -173 -54
-744 4 -516 4 -525 27 -594 83 -253 278 -441 531 -512 62 -17 159 -18 2020
-18 1601 0 1965 2 2010 13 30 8 102 36 160 64 92 44 115 61 195 142 77 77 99
106 138 186 84 170 82 153 82 760 0 488 -2 541 -18 599 -78 276 -277 474 -550
548 -57 16 -205 18 -1977 19 -1058 1 -1942 -2 -1975 -7z"/>
<path d="M6039 7809 c-377 -25 -651 -126 -842 -308 -168 -160 -263 -360 -319
-669 l-23 -127 0 -1365 c0 -1479 -1 -1458 55 -1675 108 -420 344 -659 760
-769 227 -60 202 -59 1340 -64 1058 -3 1189 0 1384 34 212 37 425 125 557 233
225 181 353 476 389 896 8 90 10 529 8 1415 -4 1171 -6 1294 -22 1389 -51 305
-141 512 -289 668 -197 208 -482 316 -904 343 -175 11 -1925 11 -2094 -1z
m1744 -970 c167 -26 271 -118 307 -271 6 -27 10 -488 10 -1243 0 -1314 2
-1267 -58 -1365 -34 -54 -107 -111 -176 -136 -47 -18 -97 -19 -731 -22 -479
-2 -698 0 -740 8 -180 34 -272 139 -295 336 -13 113 -14 2237 -1 2349 19 159
74 251 184 305 34 16 89 34 122 39 92 13 1292 13 1378 0z"/>
<path d="M17385 7814 c-558 -32 -904 -209 -1085 -555 -52 -101 -105 -259 -132
-400 -22 -113 -22 -123 -26 -1464 -3 -1408 -2 -1473 39 -1664 100 -460 345
-724 775 -836 229 -60 207 -59 1344 -63 722 -2 1085 0 1175 8 397 34 659 140
851 343 154 161 246 383 292 701 15 110 17 241 17 1441 0 1461 2 1414 -66
1675 -37 146 -125 328 -203 422 -167 201 -414 321 -776 374 -102 15 -232 17
-1130 19 -558 1 -1042 0 -1075 -1z m1754 -988 c137 -45 213 -134 241 -281 8
-43 10 -395 8 -1260 l-3 -1200 -22 -54 c-45 -110 -107 -170 -217 -208 -47 -17
-104 -18 -766 -18 l-715 0 -56 22 c-73 30 -115 62 -156 120 -72 101 -68 19
-68 1378 0 1174 1 1222 19 1275 48 139 143 217 292 239 33 5 358 8 724 7 610
-2 669 -3 719 -20z"/>
<path d="M0 5325 l0 -2425 625 0 625 0 0 725 0 725 486 -2 486 -3 395 -723
396 -722 673 0 c371 0 674 2 674 3 0 2 -192 341 -426 753 -234 412 -426 753
-427 757 -1 5 32 20 73 33 354 116 561 349 655 735 52 214 57 304 52 924 -4
532 -5 578 -26 684 -116 616 -465 900 -1166 951 -84 6 -726 10 -1617 10
l-1478 0 0 -2425z m2799 1431 c114 -38 186 -107 223 -215 23 -65 23 -74 23
-491 0 -392 -1 -429 -19 -480 -49 -141 -140 -214 -296 -239 -41 -7 -329 -11
-772 -11 l-708 0 0 730 0 731 748 -3 c689 -3 751 -5 801 -22z"/>
<path d="M10040 5325 l0 -2425 625 0 625 0 2 1344 3 1344 480 -859 480 -858
487 -1 486 0 477 852 c262 469 481 857 486 862 5 6 9 -543 9 -1337 l0 -1347
620 0 620 0 0 2425 0 2425 -657 -2 -657 -3 -690 -1278 c-515 -951 -694 -1274
-701 -1264 -5 8 -318 584 -695 1281 l-684 1266 -658 0 -658 0 0 -2425z"/>
<path d="M21050 7265 l0 -485 1211 -2 1212 -3 -1212 -1453 -1211 -1454 0 -484
0 -484 1975 0 1975 0 0 485 0 485 -1210 2 -1209 3 1209 1450 1209 1450 1 488
0 487 -1975 0 -1975 0 0 -485z"/>
</g>
</svg>
